<svg xmlns="http://www.w3.org/2000/svg" xmlns:xlink="http://www.w3.org/1999/xlink" width="500" zoomAndPan="magnify" viewBox="0 0 375 374.999991" height="500" preserveAspectRatio="xMidYMid meet" version="1.0"><defs><g/><clipPath id="91c245bff2"><path d="M 132.621094 142.820312 L 242.074219 142.820312 L 242.074219 254.570312 L 132.621094 254.570312 Z M 132.621094 142.820312 " clip-rule="nonzero"/></clipPath><clipPath id="190c901b46"><path d="M 174 120.765625 L 201 120.765625 L 201 148 L 174 148 Z M 174 120.765625 " clip-rule="nonzero"/></clipPath><clipPath id="5b6dc53a1f"><path d="M 160.890625 219 L 214.730469 219 L 214.730469 228.003906 L 160.890625 228.003906 Z M 160.890625 219 " clip-rule="nonzero"/></clipPath><clipPath id="9fb1f896e6"><path d="M 160.132812 173.175781 L 214.882812 173.175781 L 214.882812 181 L 160.132812 181 Z M 160.132812 173.175781 " clip-rule="nonzero"/></clipPath></defs><g clip-path="url(#91c245bff2)"><path fill="#8f6ce6" d="M 206.246094 146.171875 C 206.328125 146.171875 206.40625 146.203125 206.46875 146.253906 C 206.878906 146.609375 206.320312 147.886719 205.089844 150.765625 C 205.089844 150.765625 204.171875 152.910156 203.316406 154.925781 C 202.867188 155.988281 202.507812 156.863281 202.277344 157.433594 C 202.464844 156.839844 202.75 155.945312 203.089844 154.839844 C 203.320312 154.089844 203.679688 152.898438 204.40625 150.511719 C 205.3125 147.519531 205.714844 146.179688 206.246094 146.171875 Z M 222.964844 155.835938 C 223.042969 155.867188 223.109375 155.921875 223.152344 155.992188 C 223.414062 156.464844 222.453125 157.476562 220.316406 159.757812 C 220.316406 159.757812 218.726562 161.453125 217.238281 163.0625 C 216.453125 163.910156 215.824219 164.605469 215.410156 165.0625 C 215.789062 164.574219 216.359375 163.828125 217.054688 162.90625 C 217.527344 162.277344 218.277344 161.285156 219.765625 159.289062 C 221.632812 156.789062 222.46875 155.660156 222.964844 155.835938 Z M 235.394531 170.675781 C 235.457031 170.726562 235.5 170.800781 235.515625 170.882812 C 235.601562 171.417969 234.355469 172.035156 231.574219 173.445312 C 231.574219 173.445312 229.503906 174.492188 227.554688 175.492188 C 226.535156 176.019531 225.699219 176.453125 225.15625 176.742188 C 225.675781 176.414062 226.472656 175.910156 227.433594 175.285156 C 228.09375 174.855469 229.136719 174.179688 231.210938 172.816406 C 233.820312 171.101562 234.972656 170.328125 235.394531 170.675781 Z M 242.027344 188.886719 C 242.070312 188.960938 242.085938 189.042969 242.070312 189.128906 C 241.96875 189.65625 240.59375 189.8125 237.496094 190.175781 C 237.496094 190.175781 235.191406 190.449219 233.019531 190.71875 C 231.882812 190.859375 230.953125 190.984375 230.34375 191.070312 C 230.933594 190.941406 231.859375 190.738281 232.980469 190.472656 C 233.742188 190.296875 234.953125 190.023438 237.367188 189.453125 C 240.402344 188.75 241.753906 188.421875 242.027344 188.886719 Z M 242.066406 208.285156 C 242.085938 208.367188 242.070312 208.453125 242.027344 208.523438 C 241.75 208.992188 240.402344 208.65625 237.371094 207.929688 C 237.371094 207.929688 235.109375 207.394531 232.980469 206.902344 C 231.863281 206.644531 230.945312 206.441406 230.34375 206.304688 C 230.953125 206.390625 231.886719 206.515625 233.023438 206.660156 C 233.800781 206.757812 235.035156 206.914062 237.496094 207.210938 C 240.589844 207.609375 241.976562 207.753906 242.066406 208.285156 Z M 235.503906 226.527344 C 235.488281 226.609375 235.445312 226.683594 235.382812 226.738281 C 234.964844 227.078125 233.808594 226.300781 231.207031 224.585938 C 231.207031 224.585938 229.265625 223.304688 227.433594 222.109375 C 226.46875 221.480469 225.675781 220.972656 225.160156 220.644531 C 225.699219 220.941406 226.53125 221.371094 227.550781 221.902344 C 228.25 222.261719 229.351562 222.828125 231.566406 223.957031 C 234.34375 225.371094 235.589844 225.992188 235.503906 226.527344 Z M 223.132812 241.410156 C 223.09375 241.484375 223.027344 241.539062 222.949219 241.566406 C 222.441406 241.746094 221.617188 240.617188 219.757812 238.105469 C 219.757812 238.105469 218.367188 236.238281 217.054688 234.484375 C 216.359375 233.558594 215.789062 232.8125 215.414062 232.324219 C 215.824219 232.78125 216.453125 233.480469 217.238281 234.332031 C 217.769531 234.90625 218.613281 235.816406 220.308594 237.640625 C 222.441406 239.925781 223.398438 240.941406 223.132812 241.410156 Z M 206.449219 251.144531 C 206.382812 251.195312 206.304688 251.222656 206.21875 251.226562 C 205.683594 251.226562 205.292969 249.878906 204.398438 246.878906 C 204.398438 246.878906 203.730469 244.640625 203.089844 242.542969 C 202.753906 241.4375 202.46875 240.535156 202.28125 239.949219 C 202.515625 240.519531 202.871094 241.394531 203.316406 242.457031 C 203.609375 243.1875 204.101562 244.332031 205.074219 246.621094 C 206.304688 249.515625 206.855469 250.789062 206.449219 251.144531 Z M 187.457031 254.550781 C 187.378906 254.574219 187.292969 254.574219 187.214844 254.550781 C 186.714844 254.355469 186.804688 252.960938 186.980469 249.835938 C 186.980469 249.835938 187.113281 247.503906 187.226562 245.3125 C 187.289062 244.160156 187.328125 243.214844 187.351562 242.597656 C 187.375 243.214844 187.410156 244.160156 187.46875 245.3125 C 187.507812 246.097656 187.566406 247.34375 187.703125 249.835938 C 187.890625 252.960938 187.960938 254.359375 187.457031 254.550781 Z M 168.457031 251.21875 C 168.375 251.21875 168.292969 251.1875 168.226562 251.132812 C 167.820312 250.78125 168.378906 249.5 169.609375 246.625 C 169.609375 246.625 170.527344 244.480469 171.382812 242.464844 C 171.835938 241.402344 172.191406 240.527344 172.425781 239.957031 C 172.234375 240.550781 171.953125 241.441406 171.613281 242.546875 C 171.382812 243.300781 171.023438 244.492188 170.292969 246.878906 C 169.386719 249.871094 168.992188 251.210938 168.457031 251.21875 Z M 151.730469 241.550781 C 151.65625 241.523438 151.589844 241.464844 151.546875 241.394531 C 151.285156 240.925781 152.246094 239.90625 154.378906 237.632812 C 154.378906 237.632812 155.96875 235.933594 157.460938 234.328125 C 158.242188 233.480469 158.878906 232.78125 159.289062 232.328125 C 158.914062 232.816406 158.335938 233.558594 157.640625 234.480469 C 157.167969 235.109375 156.421875 236.105469 154.933594 238.097656 C 153.0625 240.601562 152.238281 241.730469 151.730469 241.550781 Z M 139.304688 226.714844 C 139.242188 226.664062 139.199219 226.589844 139.183594 226.507812 C 139.097656 225.972656 140.34375 225.355469 143.125 223.945312 C 143.125 223.945312 145.195312 222.894531 147.144531 221.898438 C 148.167969 221.371094 149 220.933594 149.542969 220.644531 C 149.023438 220.976562 148.230469 221.480469 147.261719 222.105469 C 146.605469 222.535156 145.5625 223.207031 143.484375 224.574219 C 140.878906 226.289062 139.71875 227.0625 139.304688 226.714844 Z M 132.671875 208.503906 C 132.628906 208.429688 132.613281 208.34375 132.628906 208.261719 C 132.730469 207.734375 134.109375 207.578125 137.203125 207.210938 C 137.203125 207.210938 139.511719 206.941406 141.675781 206.667969 C 142.816406 206.527344 143.746094 206.402344 144.355469 206.320312 C 143.761719 206.449219 142.839844 206.652344 141.71875 206.914062 C 140.953125 207.089844 139.742188 207.367188 137.328125 207.933594 C 134.296875 208.640625 132.945312 208.964844 132.671875 208.503906 Z M 132.625 189.105469 C 132.613281 189.023438 132.625 188.9375 132.664062 188.867188 C 132.941406 188.398438 134.292969 188.734375 137.324219 189.460938 C 137.324219 189.460938 139.582031 189.996094 141.710938 190.488281 C 142.828125 190.746094 143.75 190.949219 144.34375 191.082031 C 143.753906 191 142.808594 190.871094 141.667969 190.730469 C 140.890625 190.632812 139.660156 190.472656 137.195312 190.175781 C 134.101562 189.777344 132.734375 189.636719 132.625 189.105469 Z M 139.195312 170.863281 C 139.210938 170.78125 139.253906 170.707031 139.316406 170.652344 C 139.730469 170.3125 140.886719 171.085938 143.492188 172.804688 C 143.492188 172.804688 145.433594 174.085938 147.265625 175.28125 C 148.230469 175.910156 149.019531 176.414062 149.542969 176.746094 C 148.996094 176.449219 148.167969 176.019531 147.144531 175.488281 C 146.445312 175.128906 145.34375 174.558594 143.132812 173.433594 C 140.351562 172.019531 139.109375 171.394531 139.195312 170.863281 Z M 151.566406 155.976562 C 151.605469 155.90625 151.671875 155.851562 151.75 155.824219 C 152.257812 155.644531 153.082031 156.769531 154.941406 159.28125 C 154.941406 159.28125 156.328125 161.152344 157.644531 162.90625 C 158.335938 163.828125 158.910156 164.578125 159.285156 165.0625 C 158.875 164.609375 158.242188 163.921875 157.449219 163.058594 L 154.386719 159.761719 C 152.261719 157.464844 151.300781 156.449219 151.566406 155.976562 Z M 168.253906 146.246094 C 168.316406 146.195312 168.394531 146.164062 168.476562 146.164062 C 169.015625 146.164062 169.40625 147.511719 170.300781 150.511719 C 170.300781 150.511719 170.96875 152.746094 171.609375 154.847656 C 171.945312 155.953125 172.230469 156.855469 172.417969 157.441406 C 172.183594 156.867188 171.824219 155.996094 171.382812 154.929688 C 171.085938 154.203125 170.597656 153.050781 169.609375 150.769531 C 168.398438 147.871094 167.839844 146.601562 168.253906 146.246094 Z M 187.242188 142.839844 C 187.316406 142.8125 187.402344 142.8125 187.480469 142.839844 C 187.980469 143.035156 187.894531 144.429688 187.714844 147.554688 C 187.714844 147.554688 187.582031 149.882812 187.472656 152.078125 C 187.410156 153.230469 187.371094 154.175781 187.347656 154.792969 C 187.324219 154.175781 187.289062 153.230469 187.230469 152.078125 C 187.191406 151.289062 187.132812 150.042969 186.996094 147.554688 C 186.824219 144.429688 186.738281 143.03125 187.242188 142.839844 Z M 198.667969 167.085938 C 198.75 167.078125 198.832031 167.109375 198.890625 167.167969 C 199.277344 167.5625 198.59375 169.171875 197.117188 172.785156 C 197.117188 172.785156 196 175.472656 194.964844 178.011719 C 194.417969 179.347656 193.976562 180.441406 193.691406 181.160156 C 193.933594 180.429688 194.300781 179.304688 194.738281 177.929688 C 195.035156 176.992188 195.511719 175.511719 196.441406 172.539062 C 197.601562 168.804688 198.113281 167.132812 198.667969 167.085938 Z M 208.734375 172.882812 C 208.8125 172.90625 208.878906 172.960938 208.917969 173.035156 C 209.148438 173.542969 207.964844 174.820312 205.332031 177.699219 L 201.527344 181.859375 C 200.558594 182.925781 199.773438 183.804688 199.261719 184.378906 C 199.738281 183.785156 200.464844 182.84375 201.332031 181.703125 C 201.921875 180.925781 202.878906 179.695312 204.765625 177.222656 C 207.148438 174.132812 208.199219 172.738281 208.734375 172.882812 Z M 216.226562 181.796875 C 216.292969 181.847656 216.335938 181.925781 216.34375 182.007812 C 216.386719 182.566406 214.839844 183.359375 211.382812 185.15625 C 211.382812 185.15625 208.808594 186.496094 206.390625 187.773438 C 205.121094 188.441406 204.082031 188.996094 203.410156 189.359375 L 206.273438 187.578125 C 207.101562 187.050781 208.410156 186.222656 211.027344 184.546875 C 214.304688 182.421875 215.753906 181.476562 216.226562 181.792969 Z M 220.230469 192.75 C 220.277344 192.820312 220.292969 192.90625 220.269531 192.988281 C 220.121094 193.527344 218.398438 193.738281 214.539062 194.242188 C 214.539062 194.242188 211.664062 194.617188 208.960938 194.980469 C 207.539062 195.171875 206.375 195.335938 205.617188 195.445312 C 206.367188 195.292969 207.519531 195.046875 208.917969 194.742188 C 209.875 194.535156 211.390625 194.203125 214.414062 193.53125 C 218.214844 192.675781 219.902344 192.289062 220.230469 192.75 Z M 220.285156 204.414062 C 220.304688 204.496094 220.292969 204.582031 220.242188 204.652344 C 219.921875 205.101562 218.226562 204.714844 214.433594 203.859375 C 214.433594 203.859375 211.601562 203.222656 208.9375 202.632812 C 207.535156 202.335938 206.386719 202.078125 205.636719 201.921875 C 206.394531 202.03125 207.554688 202.199219 208.980469 202.394531 C 209.949219 202.527344 211.484375 202.738281 214.558594 203.144531 C 218.398438 203.65625 220.121094 203.875 220.269531 204.414062 Z M 216.355469 215.390625 C 216.347656 215.472656 216.304688 215.550781 216.238281 215.601562 C 215.777344 215.914062 214.320312 214.96875 211.042969 212.859375 C 211.042969 212.859375 208.601562 211.285156 206.296875 209.8125 C 205.085938 209.039062 204.085938 208.417969 203.4375 208.007812 C 204.109375 208.375 205.148438 208.933594 206.417969 209.605469 C 207.285156 210.0625 208.65625 210.792969 211.402344 212.230469 C 214.84375 214.035156 216.386719 214.835938 216.355469 215.390625 Z M 208.914062 224.328125 C 208.875 224.40625 208.808594 224.460938 208.730469 224.484375 C 208.191406 224.625 207.144531 223.230469 204.785156 220.121094 C 204.785156 220.121094 203.011719 217.800781 201.359375 215.628906 C 200.472656 214.484375 199.757812 213.550781 199.289062 212.953125 C 199.800781 213.527344 200.585938 214.410156 201.546875 215.476562 C 202.207031 216.207031 203.246094 217.359375 205.34375 219.65625 C 207.964844 222.566406 209.148438 223.847656 208.914062 224.355469 Z M 198.886719 230.199219 C 198.824219 230.253906 198.742188 230.285156 198.660156 230.277344 C 198.109375 230.230469 197.601562 228.558594 196.4375 224.824219 C 196.4375 224.824219 195.574219 222.039062 194.746094 219.425781 C 194.308594 218.050781 193.945312 216.925781 193.707031 216.195312 C 194.003906 216.910156 194.429688 218.007812 194.972656 219.339844 C 195.34375 220.253906 195.925781 221.695312 197.113281 224.578125 C 198.589844 228.21875 199.273438 229.828125 198.886719 230.222656 Z M 187.464844 232.277344 C 187.386719 232.3125 187.300781 232.3125 187.226562 232.277344 C 186.726562 232.039062 186.816406 230.292969 186.992188 226.386719 C 186.992188 226.386719 187.125 223.472656 187.242188 220.742188 C 187.300781 219.296875 187.335938 218.117188 187.363281 217.347656 C 187.386719 218.117188 187.425781 219.296875 187.480469 220.742188 C 187.519531 221.726562 187.578125 223.28125 187.714844 226.386719 C 187.890625 230.308594 187.980469 232.054688 187.464844 232.277344 Z M 176.035156 230.304688 C 175.949219 230.308594 175.871094 230.277344 175.808594 230.21875 C 175.417969 229.820312 176.105469 228.214844 177.582031 224.601562 C 177.582031 224.601562 178.695312 221.910156 179.734375 219.375 C 180.28125 218.039062 180.722656 216.945312 181.003906 216.226562 C 180.765625 216.957031 180.414062 218.082031 179.960938 219.457031 C 179.667969 220.394531 179.191406 221.878906 178.253906 224.847656 C 177.097656 228.585938 176.585938 230.253906 176.035156 230.304688 Z M 165.964844 224.503906 C 165.882812 224.480469 165.816406 224.425781 165.78125 224.351562 C 165.550781 223.839844 166.734375 222.566406 169.371094 219.683594 L 173.171875 215.523438 C 174.140625 214.457031 174.925781 213.578125 175.433594 213.007812 C 174.960938 213.601562 174.234375 214.535156 173.367188 215.679688 C 172.773438 216.457031 171.816406 217.6875 169.925781 220.164062 C 167.5625 223.257812 166.503906 224.652344 165.964844 224.507812 Z M 158.476562 215.589844 C 158.40625 215.539062 158.363281 215.464844 158.355469 215.378906 C 158.3125 214.824219 159.859375 214.03125 163.3125 212.234375 C 163.3125 212.234375 165.886719 210.890625 168.304688 209.617188 C 169.578125 208.949219 170.613281 208.390625 171.289062 208.03125 C 170.636719 208.433594 169.640625 209.054688 168.425781 209.828125 C 167.597656 210.351562 166.285156 211.183594 163.671875 212.859375 C 160.390625 214.96875 158.945312 215.910156 158.476562 215.59375 Z M 154.46875 204.640625 C 154.421875 204.570312 154.40625 204.484375 154.425781 204.402344 C 154.574219 203.863281 156.296875 203.648438 160.15625 203.148438 C 160.15625 203.148438 163.03125 202.773438 165.738281 202.410156 C 167.160156 202.21875 168.324219 202.054688 169.082031 201.941406 C 168.332031 202.097656 167.183594 202.339844 165.777344 202.648438 C 164.820312 202.855469 163.308594 203.183594 160.28125 203.859375 C 156.484375 204.714844 154.789062 205.101562 154.46875 204.640625 Z M 154.425781 192.988281 C 154.410156 192.90625 154.425781 192.820312 154.46875 192.75 C 154.789062 192.296875 156.484375 192.6875 160.28125 193.542969 C 160.28125 193.542969 163.109375 194.179688 165.777344 194.769531 C 167.175781 195.066406 168.324219 195.324219 169.078125 195.484375 C 168.320312 195.367188 167.15625 195.203125 165.734375 195.007812 C 164.765625 194.871094 163.226562 194.660156 160.15625 194.253906 C 156.296875 193.734375 154.585938 193.515625 154.425781 192.976562 Z M 158.355469 182.007812 C 158.367188 181.925781 158.410156 181.851562 158.476562 181.800781 C 158.925781 181.488281 160.40625 182.433594 163.65625 184.546875 C 163.65625 184.546875 166.101562 186.117188 168.402344 187.585938 C 169.617188 188.359375 170.613281 188.984375 171.265625 189.390625 C 170.589844 189.027344 169.554688 188.46875 168.285156 187.796875 C 167.414062 187.335938 166.046875 186.605469 163.296875 185.171875 C 159.847656 183.351562 158.300781 182.554688 158.34375 181.996094 Z M 165.785156 173.046875 C 165.820312 172.972656 165.886719 172.914062 165.96875 172.890625 C 166.503906 172.75 167.550781 174.144531 169.914062 177.253906 C 169.914062 177.253906 171.6875 179.574219 173.339844 181.746094 C 174.226562 182.890625 174.941406 183.828125 175.40625 184.421875 C 174.898438 183.847656 174.117188 182.964844 173.148438 181.898438 C 172.488281 181.167969 171.449219 180.015625 169.355469 177.71875 C 166.734375 174.824219 165.554688 173.554688 165.785156 173.035156 Z M 175.8125 167.191406 C 175.871094 167.132812 175.953125 167.101562 176.035156 167.109375 C 176.589844 167.160156 177.097656 168.832031 178.257812 172.566406 C 178.257812 172.566406 179.128906 175.347656 179.953125 177.964844 C 180.386719 179.339844 180.75 180.464844 180.988281 181.195312 C 180.695312 180.480469 180.269531 179.382812 179.726562 178.042969 C 179.355469 177.136719 178.769531 175.695312 177.585938 172.8125 C 176.105469 169.183594 175.421875 167.578125 175.8125 167.167969 Z M 187.230469 165.109375 C 187.308594 165.078125 187.394531 165.078125 187.472656 165.109375 C 187.96875 165.351562 187.882812 167.09375 187.703125 171 C 187.703125 171 187.570312 173.917969 187.460938 176.648438 C 187.398438 178.089844 187.359375 179.273438 187.335938 180.042969 C 187.3125 179.273438 187.277344 178.089844 187.21875 176.648438 C 187.183594 175.664062 187.121094 174.105469 186.988281 171 C 186.816406 167.082031 186.730469 165.335938 187.230469 165.109375 Z M 195.148438 153.519531 C 195.210938 153.464844 195.3125 153.472656 195.367188 153.535156 L 195.367188 153.5625 C 195.773438 154.15625 195.035156 157.867188 193.398438 166.175781 L 191.035156 178.203125 C 190.445312 181.269531 189.960938 183.78125 189.648438 185.421875 C 189.914062 183.773438 190.316406 181.261719 190.800781 178.160156 C 191.128906 176.054688 191.648438 172.722656 192.679688 166.054688 C 193.996094 157.679688 194.566406 153.953125 195.148438 153.519531 Z M 210.035156 158.945312 C 210.117188 158.917969 210.210938 158.960938 210.242188 159.042969 C 210.242188 159.042969 210.242188 159.042969 210.242188 159.066406 C 210.414062 159.769531 208.46875 162.996094 204.097656 170.242188 C 204.097656 170.242188 200.847656 175.644531 197.800781 180.734375 C 196.195312 183.410156 194.890625 185.609375 194.039062 187.042969 C 194.847656 185.585938 196.089844 183.351562 197.585938 180.613281 C 198.613281 178.75 200.246094 175.792969 203.472656 169.886719 C 207.535156 162.457031 209.339844 159.132812 210.03125 158.933594 Z M 222.203125 169.148438 C 222.289062 169.148438 222.359375 169.214844 222.359375 169.300781 C 222.363281 169.3125 222.363281 169.324219 222.359375 169.335938 C 222.285156 170.050781 219.351562 172.414062 212.789062 177.722656 C 212.789062 177.722656 207.898438 181.683594 203.300781 185.414062 C 200.882812 187.378906 198.910156 188.980469 197.625 190.050781 C 198.878906 188.957031 200.804688 187.285156 203.148438 185.230469 C 204.746094 183.828125 207.285156 181.613281 212.328125 177.171875 C 218.664062 171.582031 221.488281 169.085938 222.207031 169.144531 Z M 230.152344 182.917969 C 230.234375 182.945312 230.277344 183.035156 230.25 183.117188 L 230.25 183.140625 C 229.933594 183.792969 226.375 185.003906 218.402344 187.734375 C 218.402344 187.734375 212.460938 189.769531 206.878906 191.699219 C 203.9375 192.710938 201.53125 193.550781 199.964844 194.101562 C 201.515625 193.503906 203.890625 192.597656 206.792969 191.472656 C 208.769531 190.707031 211.902344 189.492188 218.15625 187.054688 C 226.007812 183.984375 229.511719 182.597656 230.164062 182.894531 Z M 232.929688 198.585938 C 232.996094 198.644531 233.003906 198.742188 232.949219 198.808594 L 232.929688 198.824219 C 232.417969 199.332031 228.660156 199.242188 220.238281 199.070312 C 220.238281 199.070312 213.960938 198.9375 208.050781 198.824219 C 204.945312 198.769531 202.402344 198.730469 200.746094 198.707031 C 202.402344 198.683594 204.945312 198.644531 208.050781 198.585938 C 210.175781 198.546875 213.53125 198.484375 220.234375 198.34375 C 228.660156 198.15625 232.417969 198.070312 232.945312 198.574219 Z M 230.226562 214.273438 C 230.265625 214.347656 230.242188 214.441406 230.164062 214.484375 L 230.140625 214.484375 C 229.488281 214.78125 225.984375 213.40625 218.132812 210.34375 C 218.132812 210.34375 212.277344 208.066406 206.765625 205.929688 C 203.863281 204.804688 201.484375 203.894531 199.9375 203.300781 C 201.5 203.847656 203.90625 204.6875 206.847656 205.703125 C 208.851562 206.394531 212.023438 207.484375 218.375 209.664062 C 226.351562 212.386719 229.898438 213.597656 230.226562 214.246094 Z M 222.347656 228.078125 C 222.359375 228.164062 222.308594 228.246094 222.222656 228.261719 C 222.222656 228.261719 222.21875 228.261719 222.21875 228.261719 L 222.191406 228.261719 C 221.472656 228.316406 218.644531 225.820312 212.3125 220.238281 C 212.3125 220.238281 207.582031 216.074219 203.132812 212.175781 C 200.789062 210.121094 198.863281 208.449219 197.613281 207.359375 C 198.894531 208.414062 200.863281 210.035156 203.285156 211.992188 C 204.933594 213.332031 207.542969 215.449219 212.773438 219.679688 C 219.335938 224.984375 222.265625 227.347656 222.347656 228.066406 Z M 210.246094 238.34375 C 210.230469 238.433594 210.148438 238.488281 210.058594 238.472656 L 210.035156 238.472656 C 209.34375 238.273438 207.542969 234.957031 203.484375 227.535156 C 203.484375 227.535156 200.453125 222.003906 197.597656 216.804688 C 196.09375 214.070312 194.851562 211.835938 194.050781 210.378906 C 194.898438 211.808594 196.203125 214.007812 197.808594 216.683594 C 198.902344 218.507812 200.632812 221.402344 204.109375 227.171875 C 208.46875 234.40625 210.421875 237.636719 210.246094 238.339844 Z M 195.382812 243.828125 C 195.339844 243.902344 195.246094 243.929688 195.167969 243.886719 L 195.148438 243.871094 C 194.554688 243.449219 193.996094 239.710938 192.703125 231.339844 C 192.703125 231.339844 191.746094 225.097656 190.824219 219.230469 C 190.34375 216.144531 189.9375 213.617188 189.675781 211.96875 C 189.972656 213.609375 190.464844 216.132812 191.0625 219.191406 C 191.46875 221.269531 192.113281 224.59375 193.425781 231.210938 C 195.046875 239.511719 195.789062 243.21875 195.371094 243.816406 Z M 179.550781 243.871094 C 179.484375 243.925781 179.386719 243.917969 179.328125 243.851562 L 179.3125 243.828125 C 178.914062 243.234375 179.652344 239.523438 181.28125 231.214844 L 183.648438 219.191406 C 184.238281 216.125 184.722656 213.609375 185.035156 211.96875 C 184.769531 213.617188 184.363281 216.132812 183.882812 219.230469 C 183.554688 221.339844 183.03125 224.671875 182.003906 231.335938 C 180.699219 239.710938 180.136719 243.4375 179.550781 243.871094 Z M 164.671875 238.457031 C 164.589844 238.480469 164.5 238.4375 164.472656 238.355469 C 164.472656 238.347656 164.472656 238.339844 164.472656 238.332031 C 164.292969 237.632812 166.246094 234.40625 170.609375 227.160156 C 170.609375 227.160156 173.863281 221.753906 176.910156 216.667969 C 178.511719 213.992188 179.820312 211.792969 180.671875 210.359375 C 179.863281 211.816406 178.621094 214.050781 177.125 216.785156 C 176.097656 218.652344 174.464844 221.605469 171.238281 227.515625 C 167.160156 234.945312 165.359375 238.257812 164.667969 238.457031 Z M 152.519531 228.25 C 152.429688 228.25 152.359375 228.179688 152.359375 228.09375 C 152.359375 228.09375 152.359375 228.078125 152.359375 228.070312 C 152.425781 227.347656 155.382812 224.984375 161.9375 219.679688 C 161.9375 219.679688 166.828125 215.71875 171.421875 211.984375 C 173.839844 210.019531 175.816406 208.417969 177.101562 207.351562 C 175.84375 208.445312 173.921875 210.117188 171.578125 212.171875 C 169.976562 213.570312 167.4375 215.789062 162.414062 220.230469 C 156.046875 225.808594 153.222656 228.304688 152.519531 228.25 Z M 144.554688 214.484375 C 144.472656 214.457031 144.429688 214.367188 144.460938 214.285156 C 144.460938 214.285156 144.460938 214.285156 144.460938 214.28125 L 144.460938 214.261719 C 144.773438 213.609375 148.335938 212.398438 156.308594 209.667969 C 156.308594 209.667969 162.253906 207.632812 167.835938 205.703125 C 170.789062 204.6875 173.183594 203.847656 174.75 203.300781 C 173.195312 203.894531 170.820312 204.804688 167.917969 205.929688 C 165.953125 206.695312 162.820312 207.910156 156.5625 210.34375 C 148.714844 213.40625 145.210938 214.78125 144.554688 214.484375 Z M 141.765625 198.8125 C 141.699219 198.757812 141.691406 198.65625 141.746094 198.589844 L 141.765625 198.574219 C 142.28125 198.070312 146.039062 198.15625 154.457031 198.332031 C 154.457031 198.332031 160.738281 198.464844 166.644531 198.574219 C 169.753906 198.632812 172.296875 198.671875 173.953125 198.695312 C 172.296875 198.71875 169.753906 198.757812 166.644531 198.8125 C 164.527344 198.855469 161.171875 198.917969 154.460938 199.058594 C 146.039062 199.230469 142.28125 199.320312 141.765625 198.8125 Z M 144.472656 183.128906 C 144.429688 183.054688 144.457031 182.960938 144.53125 182.917969 C 144.539062 182.914062 144.546875 182.914062 144.554688 182.917969 C 145.210938 182.617188 148.714844 183.996094 156.566406 187.050781 C 156.566406 187.050781 162.421875 189.335938 167.933594 191.472656 C 170.835938 192.597656 173.210938 193.503906 174.761719 194.101562 C 173.195312 193.550781 170.789062 192.710938 167.851562 191.699219 C 165.847656 191.003906 162.671875 189.914062 156.324219 187.734375 C 148.347656 184.992188 144.785156 183.78125 144.472656 183.128906 Z M 152.351562 169.320312 C 152.335938 169.238281 152.390625 169.15625 152.472656 169.140625 C 152.476562 169.140625 152.476562 169.140625 152.480469 169.140625 L 152.503906 169.140625 C 153.222656 169.085938 156.050781 171.582031 162.386719 177.164062 C 162.386719 177.164062 167.113281 181.324219 171.566406 185.230469 C 173.910156 187.28125 175.832031 188.957031 177.089844 190.046875 C 175.804688 188.992188 173.835938 187.371094 171.410156 185.414062 C 169.761719 184.074219 167.152344 181.949219 161.925781 177.722656 C 155.359375 172.402344 152.425781 170.042969 152.351562 169.320312 Z M 164.453125 159.054688 C 164.46875 158.972656 164.546875 158.914062 164.628906 158.929688 C 164.632812 158.929688 164.632812 158.929688 164.632812 158.929688 L 164.660156 158.929688 C 165.351562 159.128906 167.15625 162.445312 171.21875 169.867188 C 171.21875 169.867188 174.242188 175.398438 177.101562 180.59375 C 178.605469 183.332031 179.84375 185.566406 180.648438 187.023438 C 179.796875 185.589844 178.488281 183.394531 176.886719 180.71875 C 175.792969 178.890625 174.0625 176 170.589844 170.230469 C 166.234375 162.984375 164.277344 159.761719 164.453125 159.054688 Z M 179.320312 153.570312 C 179.367188 153.496094 179.464844 153.46875 179.539062 153.515625 L 179.558594 153.515625 C 180.148438 153.941406 180.707031 157.679688 181.996094 166.046875 C 181.996094 166.046875 182.960938 172.289062 183.878906 178.15625 C 184.359375 181.246094 184.765625 183.773438 185.03125 185.417969 C 184.71875 183.777344 184.238281 181.257812 183.640625 178.199219 C 183.234375 176.117188 182.59375 172.796875 181.292969 166.175781 C 179.652344 157.875 178.914062 154.171875 179.320312 153.570312 " fill-opacity="1" fill-rule="nonzero"/></g><g clip-path="url(#190c901b46)"><path fill="#4e4044" d="M 187.523438 125.410156 C 182.828125 125.410156 179.011719 129.238281 179.011719 133.9375 C 179.011719 138.636719 182.828125 142.464844 187.523438 142.464844 C 192.21875 142.464844 196.035156 138.636719 196.035156 133.9375 C 196.035156 129.238281 192.21875 125.410156 187.523438 125.410156 Z M 187.523438 147.09375 C 180.277344 147.09375 174.386719 141.191406 174.386719 133.9375 C 174.386719 126.679688 180.277344 120.78125 187.523438 120.78125 C 194.769531 120.78125 200.664062 126.679688 200.664062 133.9375 C 200.664062 141.191406 194.769531 147.09375 187.523438 147.09375 " fill-opacity="1" fill-rule="nonzero"/></g><path fill="#000000" d="M 197.199219 151.480469 L 177.851562 151.480469 L 177.851562 162.664062 L 197.199219 162.664062 L 197.199219 151.480469 " fill-opacity="1" fill-rule="nonzero"/><path fill="#cb6ce6" d="M 204.53125 222.726562 L 170.515625 222.726562 L 170.515625 177.09375 L 204.53125 177.09375 L 204.53125 222.726562 " fill-opacity="1" fill-rule="nonzero"/><path fill="#000000" d="M 174.390625 218.847656 L 200.65625 218.847656 L 200.65625 180.976562 L 174.390625 180.976562 Z M 208.40625 226.605469 L 166.644531 226.605469 L 166.644531 173.21875 L 208.40625 173.21875 L 208.40625 226.605469 " fill-opacity="1" fill-rule="nonzero"/><path fill="#4e4044" d="M 198.988281 158.238281 L 176.058594 158.238281 C 174.058594 158.238281 172.304688 159.566406 171.757812 161.492188 L 167.328125 177.09375 L 207.722656 177.09375 L 203.289062 161.492188 C 202.742188 159.566406 200.988281 158.238281 198.988281 158.238281 " fill-opacity="1" fill-rule="nonzero"/><path fill="#000000" d="M 196.351562 153.117188 L 178.699219 153.117188 C 177.414062 153.117188 176.375 152.074219 176.375 150.789062 C 176.375 149.503906 177.414062 148.460938 178.699219 148.460938 L 196.351562 148.460938 C 197.632812 148.460938 198.675781 149.503906 198.675781 150.789062 C 198.675781 152.074219 197.632812 153.117188 196.351562 153.117188 " fill-opacity="1" fill-rule="nonzero"/><path fill="#000000" d="M 187.523438 141.832031 L 178.558594 149.238281 L 196.488281 149.238281 Z M 187.523438 141.832031 " fill-opacity="1" fill-rule="nonzero"/><path fill="#000000" d="M 187.523438 148.765625 C 186.242188 148.765625 185.199219 147.722656 185.199219 146.4375 L 185.199219 141.625 C 185.199219 140.339844 186.242188 139.296875 187.523438 139.296875 C 188.808594 139.296875 189.847656 140.339844 189.847656 141.625 L 189.847656 146.4375 C 189.847656 147.722656 188.808594 148.765625 187.523438 148.765625 " fill-opacity="1" fill-rule="nonzero"/><path fill="#ff66c4" d="M 187.523438 209.453125 C 182.5625 209.453125 178.539062 205.425781 178.539062 200.460938 L 178.539062 196.644531 C 178.539062 191.675781 182.5625 187.644531 187.523438 187.644531 C 192.484375 187.644531 196.507812 191.675781 196.507812 196.644531 L 196.507812 200.460938 C 196.507812 205.425781 192.484375 209.453125 187.523438 209.453125 " fill-opacity="1" fill-rule="nonzero"/><path fill="#000000" d="M 170.515625 225.285156 C 169.980469 225.285156 169.445312 225.125 168.984375 224.777344 C 167.851562 223.933594 167.621094 222.324219 168.464844 221.191406 L 202.480469 175.5625 C 203.328125 174.425781 204.929688 174.195312 206.0625 175.042969 C 207.195312 175.890625 207.425781 177.496094 206.582031 178.628906 L 172.566406 224.261719 C 172.0625 224.9375 171.292969 225.285156 170.515625 225.285156 " fill-opacity="1" fill-rule="nonzero"/><path fill="#000000" d="M 204.53125 225.285156 C 203.753906 225.285156 202.984375 224.9375 202.480469 224.261719 L 168.464844 178.628906 C 167.621094 177.496094 167.851562 175.890625 168.984375 175.042969 C 170.117188 174.195312 171.71875 174.425781 172.566406 175.5625 L 206.582031 221.191406 C 207.425781 222.324219 207.195312 223.933594 206.0625 224.777344 C 205.605469 225.125 205.066406 225.285156 204.53125 225.285156 " fill-opacity="1" fill-rule="nonzero"/><g clip-path="url(#5b6dc53a1f)"><path fill="#4e4044" d="M 209.640625 228.003906 L 165.40625 228.003906 C 162.96875 228.003906 160.988281 226.023438 160.988281 223.585938 C 160.988281 221.140625 162.96875 219.15625 165.40625 219.15625 L 209.640625 219.15625 C 212.082031 219.15625 214.058594 221.140625 214.058594 223.585938 C 214.058594 226.023438 212.082031 228.003906 209.640625 228.003906 " fill-opacity="1" fill-rule="nonzero"/></g><path fill="#cb6ce6" d="M 190.65625 153.601562 C 190.65625 155.332031 189.253906 156.738281 187.523438 156.738281 C 185.792969 156.738281 184.390625 155.332031 184.390625 153.601562 C 184.390625 151.867188 185.792969 150.460938 187.523438 150.460938 C 189.253906 150.460938 190.65625 151.867188 190.65625 153.601562 " fill-opacity="1" fill-rule="nonzero"/><g clip-path="url(#9fb1f896e6)"><path fill="#4e4044" d="M 211.042969 180.976562 L 164.007812 180.976562 C 161.867188 180.976562 160.132812 179.238281 160.132812 177.09375 C 160.132812 174.953125 161.867188 173.21875 164.007812 173.21875 L 211.042969 173.21875 C 213.183594 173.21875 214.914062 174.953125 214.914062 177.09375 C 214.914062 179.238281 213.183594 180.976562 211.042969 180.976562 " fill-opacity="1" fill-rule="nonzero"/></g><g fill="#ffffff" fill-opacity="1"><g transform="translate(173.551312, 176.467856)"><g><path d="M 0.828125 -4.34375 L 0.765625 -4.59375 L 0.734375 -6.59375 L 0.8125 -6.78125 L 0.71875 -6.828125 L 0.671875 -7.328125 L 1.140625 -7.359375 L 1.796875 -7.3125 L 1.734375 -6.59375 L 1.6875 -6.34375 L 1.65625 -5.03125 L 1.625 -4.515625 L 1.671875 -4.125 L 1.6875 -3.875 L 1.59375 -3.671875 L 1.703125 -3.59375 L 1.703125 -0.828125 L 1.734375 -0.6875 L 1.75 -0.484375 L 1.734375 -0.125 L 1.296875 0.015625 L 1.09375 0.015625 L 0.625 0 L 0.765625 -0.890625 L 0.890625 -1.09375 L 0.765625 -1.265625 L 0.765625 -3.484375 L 0.796875 -3.796875 Z M 0.828125 -4.34375 "/></g></g></g><g fill="#ffffff" fill-opacity="1"><g transform="translate(175.970352, 176.467856)"><g><path d="M 1.625 -0.828125 L 1.625 -0.65625 L 1.265625 -0.3125 L 0.90625 0.078125 L 0.78125 0.0625 L 0.65625 -0.0625 L 0.625 -0.203125 L 0.53125 -0.234375 L 0.09375 -0.625 L 0.125 -0.8125 L 0.515625 -1.1875 L 0.8125 -1.546875 L 0.984375 -1.515625 L 1.15625 -1.265625 L 1.265625 -1.046875 L 1.40625 -1.046875 Z M 1.625 -0.828125 "/></g></g></g><g fill="#ffffff" fill-opacity="1"><g transform="translate(177.709671, 176.467856)"><g/></g></g><g fill="#ffffff" fill-opacity="1"><g transform="translate(179.758862, 176.467856)"><g><path d="M 2.34375 -4.15625 L 3.21875 -4.1875 L 3.34375 -3.890625 L 3.21875 -3.1875 L 3.25 -3.125 L 3.203125 -0.640625 L 3.109375 -0.578125 L 3.203125 -0.4375 L 3.203125 0.015625 L 2.265625 0.109375 L 2.125 -0.15625 L 2.015625 -0.390625 L 1.65625 -0.921875 L 1.171875 -1.796875 L 1.15625 -1.8125 L 0.9375 -2.25 L 0.625 -2.65625 L 0.15625 -3.390625 L 0.171875 -4.125 L 0.3125 -4.234375 L 0.375 -4.296875 L 0.5625 -4.65625 L 1.3125 -5.8125 L 1.421875 -6.09375 L 1.953125 -6.734375 L 1.9375 -6.84375 L 2.40625 -7.484375 L 2.78125 -7.265625 L 2.890625 -7.1875 L 3.15625 -6.953125 L 2.921875 -6.5625 L 2.5625 -6.265625 L 2.578125 -6.125 L 1.8125 -5.046875 L 1.4375 -4.40625 L 1.203125 -3.96875 L 1.0625 -3.765625 L 1.25 -3.484375 L 1.84375 -2.515625 L 1.84375 -2.203125 L 2.015625 -2.21875 L 2.34375 -1.484375 L 2.359375 -1.546875 L 2.421875 -3.125 L 2.40625 -3.203125 L 2.359375 -3.3125 Z M 2.34375 -4.15625 "/></g></g></g><g fill="#ffffff" fill-opacity="1"><g transform="translate(183.507385, 176.467856)"><g><path d="M 0.796875 -1.734375 L 0.78125 -3.046875 L 0.703125 -4.140625 L 0.71875 -4.84375 L 0.796875 -5.0625 L 0.75 -5.375 L 0.6875 -6.984375 L 0.8125 -7.34375 L 1.71875 -7.328125 L 1.703125 -6.4375 L 1.6875 -6.125 L 1.578125 -5.765625 L 1.59375 -5.578125 L 1.6875 -5.359375 L 1.625 -4.984375 L 1.625 -4.640625 L 1.640625 -4.265625 L 1.65625 -3.515625 L 1.59375 -2.34375 L 1.65625 -1.171875 L 1.671875 -1.015625 L 1.78125 -0.9375 L 1.859375 -0.921875 L 2.1875 -1.046875 L 3.015625 -1.390625 L 3.046875 -2.046875 L 3.078125 -3.3125 L 3.015625 -4.53125 L 3.015625 -5.359375 L 2.984375 -6.625 L 3 -7.328125 L 3.5 -7.34375 L 3.953125 -7.328125 L 4.015625 -6.84375 L 3.984375 -6.296875 L 3.875 -6.234375 L 3.984375 -6.125 L 3.90625 -5.484375 L 3.890625 -4.9375 L 3.875 -4.796875 L 3.78125 -4.625 L 3.875 -4.515625 L 3.9375 -4.234375 L 3.90625 -2.015625 L 3.96875 -0.84375 L 4.109375 -0.0625 L 3.140625 0.09375 L 3.0625 -0.4375 L 3.046875 -0.515625 L 2.28125 -0.125 L 1.953125 0.046875 L 1.328125 0.046875 L 0.734375 -0.484375 L 0.71875 -0.984375 L 0.75 -1.453125 L 0.890625 -1.625 Z M 0.796875 -1.734375 "/></g></g></g><g fill="#ffffff" fill-opacity="1"><g transform="translate(188.155551, 176.467856)"><g><path d="M 2.796875 -2.046875 L 2.765625 -2.125 L 2.625 -2.109375 L 2.421875 -1.96875 L 1.75 -1.8125 L 1.65625 -1.765625 L 1.453125 -1.6875 L 1.34375 -0.984375 L 1.265625 -0.875 L 1.328125 -0.59375 L 1.21875 0.078125 L 0.59375 0.015625 L 0.25 -0.203125 L 0.515625 -1.421875 L 0.625 -2.046875 L 0.734375 -2.15625 L 0.71875 -2.359375 L 0.921875 -3.59375 L 0.953125 -3.78125 L 1.015625 -3.984375 L 1.015625 -4.171875 L 1.3125 -5.515625 L 1.484375 -5.71875 L 1.375 -5.875 L 1.453125 -6.265625 L 1.546875 -6.6875 L 1.640625 -7.3125 L 2.453125 -7.359375 L 2.625 -7.28125 L 2.625 -6.9375 L 2.6875 -6.75 L 3.015625 -5.21875 L 2.9375 -5.046875 L 3.0625 -4.953125 L 3.546875 -2.546875 L 3.546875 -2.40625 L 3.796875 -1.46875 L 3.890625 -0.84375 L 3.828125 -0.765625 L 3.984375 -0.59375 L 4.09375 -0.171875 L 3.34375 0.0625 L 3.21875 0.0625 L 3.046875 -0.015625 L 2.921875 -1.28125 L 2.875 -1.5625 L 2.953125 -1.65625 L 2.875 -1.71875 Z M 1.875 -4.34375 L 1.734375 -3.375 L 1.75 -3.375 L 1.625 -2.734375 L 1.625 -2.65625 L 2.265625 -2.859375 L 2.546875 -2.9375 L 2.34375 -4.015625 L 2.3125 -4.53125 L 2.265625 -4.703125 L 2.125 -5.765625 L 1.921875 -4.546875 L 1.8125 -4.5 Z M 1.875 -4.34375 "/></g></g></g><g fill="#ffffff" fill-opacity="1"><g transform="translate(192.403873, 176.467856)"><g><path d="M 1.4375 -1.78125 L 2.078125 -2.78125 L 1.734375 -3.1875 L 1.546875 -3.28125 L 0.765625 -3.984375 L 0.296875 -4.453125 L 0.28125 -5.09375 L 0.765625 -5.796875 L 1.28125 -6.375 L 1.265625 -6.484375 L 1.515625 -6.84375 L 1.71875 -6.96875 C 1.726562 -6.976562 1.726562 -7 1.71875 -7.03125 C 1.707031 -7.0625 1.703125 -7.082031 1.703125 -7.09375 L 1.953125 -7.484375 L 2.25 -7.453125 L 2.84375 -6.984375 L 2.5625 -6.59375 L 2.3125 -6.328125 L 2.21875 -6.15625 L 1.65625 -5.484375 L 1.546875 -5.34375 L 1.53125 -5.265625 L 1.234375 -4.875 L 1.421875 -4.640625 L 1.609375 -4.375 L 1.765625 -4.265625 L 2.703125 -3.40625 L 2.96875 -3.203125 L 2.984375 -2.421875 L 2.625 -1.828125 L 2.09375 -1.171875 L 1.6875 -0.625 C 1.675781 -0.601562 1.65625 -0.566406 1.625 -0.515625 C 1.601562 -0.460938 1.59375 -0.429688 1.59375 -0.421875 L 1.59375 -0.453125 L 1.484375 -0.140625 L 1.21875 0.1875 L 0.40625 -0.3125 L 0.546875 -0.6875 L 0.734375 -0.859375 C 0.796875 -0.941406 0.882812 -1.070312 1 -1.25 C 1.019531 -1.28125 1.046875 -1.328125 1.078125 -1.390625 C 1.117188 -1.453125 1.148438 -1.503906 1.171875 -1.546875 L 1.453125 -1.671875 Z M 1.4375 -1.78125 "/></g></g></g><g fill="#ffffff" fill-opacity="1"><g transform="translate(195.552634, 176.467856)"><g><path d="M 2.421875 -7.34375 L 3.34375 -7.359375 L 3.40625 -6.9375 L 3.375 -6.46875 L 2.921875 -6.46875 L 2.8125 -6.5 L 2.515625 -6.515625 L 2.203125 -6.515625 L 2.15625 -6.09375 L 2.1875 -5.875 L 2.171875 -5.140625 C 2.171875 -4.910156 2.175781 -4.773438 2.1875 -4.734375 C 2.1875 -4.710938 2.1875 -4.671875 2.1875 -4.609375 C 2.1875 -4.554688 2.1875 -4.519531 2.1875 -4.5 L 2.1875 -4.328125 L 2.203125 -3.5625 L 2.109375 -2.953125 L 2.09375 -2.953125 L 2.21875 -2.765625 L 2.21875 -0.875 L 2.296875 -0.171875 L 2.015625 -0.015625 L 1.734375 0.046875 L 1.203125 -0.046875 L 1.203125 -0.8125 L 1.34375 -1.4375 L 1.265625 -1.546875 L 1.3125 -2.953125 L 1.359375 -4.984375 L 1.296875 -5.453125 L 1.34375 -6.09375 L 1.28125 -6.515625 L 1.0625 -6.546875 L 1.015625 -6.484375 C 0.941406 -6.460938 0.882812 -6.453125 0.84375 -6.453125 L 0.234375 -6.4375 L 0.125 -6.5625 L 0.15625 -7.375 L 1.125 -7.328125 L 1.3125 -7.25 C 1.332031 -7.25 1.367188 -7.257812 1.421875 -7.28125 C 1.472656 -7.300781 1.515625 -7.3125 1.546875 -7.3125 C 1.640625 -7.3125 1.773438 -7.3125 1.953125 -7.3125 Z M 2.421875 -7.34375 "/></g></g></g><g fill="#ffffff" fill-opacity="1"><g transform="translate(199.03126, 176.467856)"><g><path d="M 0.828125 -4.34375 L 0.765625 -4.59375 L 0.734375 -6.59375 L 0.8125 -6.78125 L 0.71875 -6.828125 L 0.671875 -7.328125 L 1.140625 -7.359375 L 1.796875 -7.3125 L 1.734375 -6.59375 L 1.6875 -6.34375 L 1.65625 -5.03125 L 1.625 -4.515625 L 1.671875 -4.125 L 1.6875 -3.875 L 1.59375 -3.671875 L 1.703125 -3.59375 L 1.703125 -0.828125 L 1.734375 -0.6875 L 1.75 -0.484375 L 1.734375 -0.125 L 1.296875 0.015625 L 1.09375 0.015625 L 0.625 0 L 0.765625 -0.890625 L 0.890625 -1.09375 L 0.765625 -1.265625 L 0.765625 -3.484375 L 0.796875 -3.796875 Z M 0.828125 -4.34375 "/></g></g></g></svg>