<svg xmlns="http://www.w3.org/2000/svg" xmlns:xlink="http://www.w3.org/1999/xlink" id="Camada_1" x="0px" y="0px" viewBox="0 0 313.8 116.3" style="enable-background:new 0 0 313.8 116.3;" xml:space="preserve" width="313.8"  height="116.3" ><g>	<path d="M40.8,98.4h7.9c4.9,0,8.9,4,8.9,8.9v0c0,4.9-4,8.9-8.9,8.9h-7.9c-4.9,0-8.9-4-8.9-8.9v0C31.8,102.4,35.8,98.4,40.8,98.4z"/>	<circle cx="44.7" cy="44.7" r="44.7"/>	<path d="M145.2,90.4c2.4,0.1,4.7-0.3,7-1c2-0.7,3.8-1.8,5.2-3.4c1.5-1.7,2.6-3.7,3.2-5.9c0.8-2.9,1.2-5.8,1.1-8.8V37.9h15.2v33.7  c0.1,4.9-0.7,9.8-2.3,14.5c-2.7,7.5-8.9,13.3-16.6,15.5c-8.4,2.4-17.2,2.4-25.6,0c-7.7-2.2-13.8-8-16.5-15.5  c-1.7-4.6-2.5-9.6-2.4-14.5V37.9h15.1v33.3c-0.1,3,0.3,5.9,1.1,8.8c0.6,2.2,1.7,4.2,3.2,5.9c1.4,1.6,3.2,2.7,5.2,3.4  C140.4,90.1,142.8,90.4,145.2,90.4z"/>	<path d="M197.3,82.4c0,1.2,0.4,2.4,1.1,3.4c0.7,1.1,1.7,2.1,2.8,2.8c1.2,0.8,2.6,1.4,4,1.9c1.6,0.5,3.3,0.7,5,0.7  c4.8,0,8.3-0.7,10.6-2.1c2.1-1.2,3.4-3.4,3.4-5.8c0-1.2-0.4-2.5-1.2-3.4c-1-1-2.2-1.8-3.6-2.3c-1.9-0.7-3.8-1.2-5.8-1.6  c-2.3-0.5-4.8-1-7.7-1.5c-1.4-0.2-3-0.5-4.5-0.8c-1.6-0.3-3.2-0.8-4.7-1.3c-1.6-0.6-3.1-1.3-4.5-2.1c-1.4-0.9-2.7-1.9-3.8-3.2  c-1.1-1.3-2-2.9-2.6-4.5c-0.7-2-1-4.1-1-6.2c0-2.8,0.5-5.6,1.6-8.1c1.1-2.5,2.8-4.7,5-6.4c2.6-1.9,5.5-3.4,8.7-4.2  c4.1-1.1,8.3-1.6,12.5-1.5c3.5,0,7,0.5,10.4,1.5c2.8,0.9,5.5,2.3,7.8,4.1c2.1,1.7,3.8,3.9,4.9,6.4c1.2,2.5,1.8,5.3,1.7,8.1l-15-0.1  c-0.2-2.2-1.3-4.2-3.1-5.5c-2.3-1.5-5-2.3-7.7-2.2c-1.8,0-3.6,0.2-5.4,0.7c-1.3,0.3-2.5,0.9-3.6,1.7c-0.9,0.6-1.6,1.5-2.1,2.4  c-0.4,0.9-0.7,1.9-0.7,2.9c0,1,0.3,2.1,0.9,2.9c0.7,0.9,1.7,1.6,2.8,2c1.5,0.6,3.1,1.1,4.7,1.4c1.9,0.4,4.1,0.7,6.7,1  c3.1,0.5,6.1,1.1,9.1,1.8c2.8,0.6,5.5,1.7,8,3.1c2.3,1.3,4.3,3.2,5.7,5.4c1.5,2.6,2.3,5.6,2.2,8.6c0.1,3.3-0.7,6.5-2.2,9.4  c-1.5,2.7-3.6,5-6.1,6.6c-2.9,1.9-6.1,3.2-9.5,4c-4.1,0.9-8.2,1.4-12.4,1.3c-4,0.1-8-0.6-11.8-1.9c-3.1-1.1-6-2.8-8.4-4.9  c-2.1-1.9-3.8-4.2-5-6.8c-1.1-2.4-1.7-5-1.7-7.6L197.3,82.4z"/>	<path d="M243.7,69.7c0-4.5,0.9-9,2.6-13.1c1.7-4,4.1-7.7,7.3-10.7c3.2-3.1,7-5.6,11.1-7.2c9.1-3.5,19.1-3.5,28.2,0  c4.1,1.7,7.9,4.1,11.1,7.2c6.4,6.3,10,14.9,9.9,23.9c0,0.8,0,1.7-0.1,2.5c-0.1,0.6-0.2,1.2-0.2,1.8h-55c0.9,4.9,3.5,9.3,7.4,12.4  c1.8,1.5,3.9,2.6,6.1,3.4c2.2,0.8,4.5,1.2,6.9,1.2c3.4,0.1,6.8-0.8,9.8-2.5c2.7-1.5,5-3.8,6.5-6.5h16.3c-1.1,2.9-2.6,5.6-4.5,8.1  c-2,2.6-4.4,4.9-7.1,6.8c-2.9,2-6.1,3.6-9.5,4.7c-8.4,2.6-17.4,2.3-25.6-0.9c-4.1-1.7-7.9-4.1-11.1-7.2c-3.1-3-5.6-6.7-7.3-10.7  C244.5,78.7,243.6,74.2,243.7,69.7z M278.8,48c-2.4,0-4.8,0.4-7.1,1.2c-4.2,1.4-7.8,4.3-10.2,8c-1.2,1.9-2.1,4-2.7,6.2H298  c-0.6-2.2-1.4-4.2-2.6-6.2c-1.1-1.8-2.5-3.5-4.2-4.8c-1.7-1.4-3.6-2.4-5.6-3.2C283.4,48.4,281.1,48,278.8,48z"/>	<path d="M295.8,18.5c0-1.2,0.2-2.4,0.6-3.5c0.9-2.2,2.6-3.9,4.7-4.9c2.4-1,5-1,7.4,0c2.2,0.9,3.9,2.7,4.7,4.9c0.8,2.3,0.8,4.7,0,7  c-0.4,1.1-1,2-1.9,2.9c-0.8,0.8-1.8,1.5-2.9,1.9c-1.2,0.5-2.4,0.7-3.7,0.7c-1.3,0-2.5-0.2-3.7-0.7c-1.1-0.5-2-1.2-2.9-2  c-0.8-0.8-1.4-1.8-1.8-2.9C296,20.8,295.8,19.7,295.8,18.5z"/></g></svg>